<?xml version="1.0" encoding="UTF-8"?>
<svg width="146px" height="201px" viewBox="0 0 146 201" version="1.1" xmlns="http://www.w3.org/2000/svg" xmlns:xlink="http://www.w3.org/1999/xlink">
    <title>logo 2logo2</title>
    <g id="页面-1" stroke="none" stroke-width="1" fill="none" fill-rule="evenodd">
        <g id="logo" fill-rule="nonzero">
            <g>
                <path d="M59.246875,21.2 C62.546875,21.2 65.146875,23.8 65.146875,27.1 C65.246875,30.4 62.546875,33 59.246875,33 C55.946875,33 53.346875,30.3 53.346875,27.1 C53.346875,23.8 55.946875,21.2 59.246875,21.2 Z" id="path-6" fill="#F5222D"></path>
                <path d="M86.522982,21.1974948 L86.746875,21.2 C90.046875,21.2 92.646875,23.8 92.646875,27.1 C92.646875,30.4 90.046875,33 86.746875,33 C83.446875,33 80.846875,30.4 80.846875,27.1 C80.846875,23.8 83.446875,21.1 86.746875,21.2 L86.522982,21.1974948 Z" id="path-5" fill="#F5222D"></path>
                <path d="M106.246875,8.7 C109.546875,8.7 112.146875,11.3 112.146875,14.6 C112.146875,17.8 109.546875,20.5 106.246875,20.5 C102.946875,20.5 100.346875,17.9 100.346875,14.6 C100.346875,11.3 102.946875,8.7 106.246875,8.7 Z" id="path-4" fill="#F5222D"></path>
                <path d="M84.546875,0 C87.846875,0 90.446875,2.6 90.446875,5.9 C90.446875,9.1 87.846875,11.8 84.546875,11.8 C81.246875,11.8 78.646875,9.2 78.646875,5.9 C78.646875,2.6 81.246875,0 84.546875,0 Z" id="path-3" fill="#F5222D"></path>
                <path d="M61.546875,0 C64.846875,0 67.446875,2.6 67.446875,5.9 C67.446875,9.1 64.746875,11.8 61.546875,11.8 C58.246875,11.8 55.646875,9.2 55.646875,5.9 C55.646875,2.6 58.246875,0 61.546875,0 Z" id="path-2" fill="#F5222D"></path>
                <path d="M39.746875,8.7 C43.046875,8.7 45.646875,11.3 45.646875,14.6 C45.746875,17.8 43.046875,20.5 39.746875,20.5 C36.446875,20.5 33.846875,17.9 33.846875,14.6 C33.846875,11.3 36.446875,8.7 39.746875,8.7 Z" id="path-1" fill="#F5222D"></path>
                <path d="M129.6,28.6 L129.4,28.4 C128.9,27.7 128.2,27 127.6,26.3 C127.3,26 127.1,25.6 126.7,25.3 L126,24.6 C126,24.5 125.9,24.5 125.9,24.4 C125.8,24.3 125.7,24.1 125.5,24 C125.5,24 125.4,24 125.4,23.9 C124.7,23.4 124,23 123,23 C122,23 121.1,23.4 120.5,24 L106.9,38 C106.2,38.7 105.8,39.6 105.8,40.6 C105.8,41.6 106.2,42.6 106.9,43.2 L107,43.3 C107.2,43.5 107.4,43.8 107.7,44.1 C107.9,44.4 108.1,44.6 108.5,45 C108.7,45.2 108.9,45.5 109.2,45.8 C109.4,46.1 109.6,46.3 109.9,46.7 C110.1,46.9 110.3,47.2 110.6,47.5 C110.8,47.8 111,48.2 111.3,48.4 C111.5,48.7 111.7,48.9 111.8,49.3 L112.5,50.3 C112.7,50.6 112.8,50.8 113,51.2 C113.2,51.5 113.3,51.9 113.5,52.2 C113.7,52.5 113.8,52.7 113.9,53.1 C114.1,53.4 114.2,53.8 114.4,54.1 C114.5,54.4 114.7,54.8 114.8,55 C114.9,55.3 115.1,55.7 115.2,56.1 C115.3,56.4 115.4,56.8 115.6,57.1 C115.7,57.4 115.9,57.9 116,58.2 L116.3,59.2 C116.4,59.5 116.5,60 116.6,60.3 L116.9,61.3 C117,61.6 117.1,62.1 117.2,62.5 C117.3,62.8 117.4,63.2 117.4,63.5 L117.7,64.7 C117.8,65 117.8,65.4 117.9,65.7 C118,66.1 118,66.6 118.1,67 C118.1,67.3 118.2,67.7 118.2,68 C118.3,68.4 118.3,68.9 118.4,69.3 C118.4,69.6 118.5,69.8 118.5,70.2 C118.5,70.7 118.6,71.2 118.6,71.7 C118.6,71.9 118.6,72.2 118.7,72.5 C118.7,73.3 118.8,74 118.8,74.8 L118.8,131 C118.8,137.8 117.2,144.1 114.5,149.8 C114.3,149.8 113.266667,151.533333 111.4,155 C108.478791,159.337683 104.783858,163.100413 100.5,166.1 C92.7,171.9 83,175.3 72.5,175.3 C62,175.3 52.5,172 44.6,166.2 C33.5,158.4 26.3,145.6 26.3,131 L26.3,74.7 C26.3,73.9 26.3,73.2 26.4,72.4 C26.4,72.2 26.4,71.9 26.5,71.6 C26.5,71.1 26.6,70.6 26.6,70.1 C26.6,69.8 26.7,69.6 26.7,69.2 C26.7,68.8 26.8,68.3 26.9,67.9 C26.9,67.6 27,67.2 27.1,66.9 C27.2,66.5 27.2,66 27.3,65.6 C27.4,65.3 27.4,64.9 27.5,64.6 L27.8,63.4 C27.9,63.1 28,62.7 28,62.4 L28.3,61.2 L28.6,60.2 C28.7,59.9 28.8,59.4 28.9,59.1 L29.2,58.1 C29.3,57.8 29.5,57.3 29.6,57 C29.7,56.7 29.8,56.3 30,56 C30.1,55.7 30.3,55.3 30.4,54.9 C30.5,54.6 30.7,54.2 30.8,54 C31,53.7 31.1,53.3 31.3,53 C31.4,52.7 31.6,52.3 31.8,52.1 C32,51.8 32.1,51.4 32.3,51.1 C32.5,50.8 32.6,50.6 32.8,50.2 L33.5,49.2 C33.7,48.9 33.9,48.7 34,48.3 L34.7,47.3 C34.9,47 35.1,46.8 35.4,46.4 C35.6,46.1 35.8,45.9 36.1,45.5 C36.3,45.3 36.5,45 36.8,44.7 C37,44.4 37.2,44.2 37.6,43.8 C37.8,43.6 38,43.3 38.3,43 C38.4,42.9 38.5,42.8 38.6,42.6 C39.1,41.9 39.5,41.2 39.5,40.3 C39.5,39.3 39.2,38.4 38.5,37.8 L25.4,24.4 C24.7,23.7 23.8,23.3 22.8,23.3 C21.9,23.3 21,23.6 20.4,24.2 C20.4,24.3 20.3,24.3 20.2,24.4 L20,24.5 C19.8,24.7 19.6,24.9 19.5,25.2 C19.2,25.6 18.7,26 18.4,26.4 C18,26.8 17.6,27.3 17.2,27.7 C16.9,28.1 16.4,28.6 16.1,29 C15.8,29.4 15.3,30 15,30.4 L14,31.7 C13.7,32.1 13.3,32.7 13,33.1 L12,34.5 C11.7,35 11.3,35.5 11,36 C10.7,36.4 10.5,36.9 10.1,37.4 C9.8,37.9 9.4,38.5 9.2,38.9 C9,39.3 8.7,39.9 8.4,40.3 C8.1,40.8 7.9,41.4 7.5,41.9 C7.3,42.3 7,42.9 6.7,43.3 C6.5,43.8 6.2,44.4 5.9,44.9 C5.7,45.4 5.5,45.9 5.2,46.4 C5,46.9 4.8,47.6 4.5,48.2 C4.3,48.7 4.1,49.2 4,49.7 C3.8,50.2 3.6,50.9 3.3,51.5 C3.1,52 3,52.5 2.8,53 C2.6,53.7 2.5,54.2 2.3,54.9 C2.2,55.6 2.1,56.1 2,56.7 C1.9,57.4 1.7,58 1.6,58.7 L1.3,60.2 L1,62.2 C0.9,62.7 0.8,63.2 0.8,63.7 C0.7,64.4 0.6,65.1 0.6,65.9 C0.5,66.3 0.5,66.9 0.4,67.3 C0.3,68.1 0.3,68.9 0.2,69.7 C0.2,70.1 0.1,70.6 0.1,70.9 C0,72.1 0,73.3 0,74.6 L0,126.4 C0,165.2 29.8,197.5 67.9,200.2 C68.2,200.2 68.6,200.2 68.9,200.3 L74,200.3 C74.7,200.3 75.4,200.3 76.1,200.2 L76.2,200.2 C76.9,200.2 77.5,200.1 78.2,200.1 L78.9,200.1 C79.3,200.1 79.9,200 80.3,200 C80.5,200 80.8,200 81.1,199.9 C81.5,199.9 82,199.8 82.4,199.8 C82.6,199.8 82.8,199.7 83.2,199.7 C83.7,199.6 84.2,199.6 84.7,199.5 C84.9,199.5 85,199.5 85.2,199.4 L87.2,199.1 C87.3,199.1 87.5,199 87.6,199 L89.1,198.7 C89.3,198.7 89.5,198.6 89.8,198.5 L91.1,198.2 C91.3,198.1 91.5,198.1 91.9,198 L93.2,197.7 C93.4,197.6 93.6,197.6 93.9,197.5 C94.4,197.3 95,197.2 95.5,197 C95.6,197 95.7,197 95.7,196.9 C96.4,196.7 97,196.5 97.6,196.2 C97.8,196.1 97.9,196.1 98.1,196 C98.5,195.8 99,195.7 99.4,195.5 C99.6,195.4 99.8,195.3 100.1,195.3 C100.5,195.1 100.9,195 101.3,194.8 L102,194.5 C102.4,194.3 102.9,194.1 103.3,194 C103.5,193.9 103.6,193.8 103.8,193.8 C104.5,193.5 105,193.3 105.6,192.9 C105.7,192.9 105.7,192.8 105.8,192.8 C106.3,192.6 106.9,192.3 107.3,192 C107.5,191.9 107.7,191.8 107.8,191.7 C108.2,191.5 108.6,191.3 109,191 L109.7,190.7 C110,190.5 110.5,190.3 110.8,190 C111,189.9 111.2,189.8 111.3,189.7 C111.7,189.5 112.2,189.2 112.6,188.9 C112.7,188.8 112.8,188.7 113,188.7 C113.5,188.4 114.1,187.9 114.6,187.6 C114.7,187.5 114.8,187.4 115,187.3 C115.4,187 115.8,186.8 116.2,186.4 C116.4,186.3 116.5,186.1 116.7,186 C117,185.8 117.4,185.5 117.8,185.2 C118,185.1 118.1,184.9 118.3,184.8 C118.6,184.5 119,184.3 119.4,183.9 C119.6,183.8 119.7,183.6 119.9,183.5 C120.3,183.1 120.8,182.7 121.2,182.3 L121.3,182.2 C121.7,181.8 122.3,181.3 122.7,180.9 L123.1,180.5 L124.1,179.5 L124.6,179 C124.9,178.7 125.3,178.3 125.5,178 C125.6,177.8 125.8,177.7 125.9,177.5 C126.2,177.2 126.6,176.8 126.9,176.4 C127,176.3 127.1,176.1 127.2,176 C127.6,175.5 128.1,175 128.5,174.5 L128.7,174.3 C129,173.9 129.4,173.4 129.8,173 C129.9,172.8 130,172.7 130.2,172.5 C130.4,172.2 130.7,171.8 131,171.4 C131.1,171.2 131.3,171 131.4,170.9 C131.6,170.6 131.9,170.1 132.2,169.8 C132.3,169.6 132.4,169.5 132.6,169.3 C132.9,168.9 133.1,168.4 133.5,168 C133.6,167.9 133.6,167.8 133.7,167.7 C134,167.2 134.4,166.6 134.8,166.1 C134.9,166 135,165.8 135,165.7 C135.2,165.3 135.5,164.8 135.8,164.4 L136.1,163.7 C136.3,163.3 136.5,162.9 136.8,162.5 L137.1,161.8 C137.3,161.4 137.5,161 137.8,160.6 C137.9,160.4 138,160.3 138.1,160.1 C138.4,159.6 138.6,159 138.9,158.3 L138.9,157.5 C139.2,156.8 139.4,156.3 139.7,155.6 C139.8,155.4 139.8,155.2 139.9,155.1 C140.1,154.7 140.2,154.2 140.4,153.8 C140.5,153.6 140.6,153.4 140.6,153.1 C140.7,152.7 140.9,152.2 141,151.9 C141.1,151.7 141.1,151.5 141.2,151.2 C141.3,150.8 141.5,150.3 141.6,149.8 C141.7,149.6 141.7,149.5 141.8,149.3 C142,148.6 142.2,148 142.3,147.3 C142.3,147.2 142.4,147.1 142.4,147 C142.5,146.5 142.7,145.9 142.8,145.4 C142.9,145.2 142.9,145 143,144.7 L143.3,143.4 C143.4,143.2 143.4,143 143.4,142.6 L143.7,141.3 C143.7,141.1 143.8,140.9 143.8,140.6 L144.1,139 C144.1,138.9 144.1,138.7 144.2,138.6 C144.3,137.9 144.4,137.3 144.5,136.5 C144.5,136.3 144.5,136.2 144.6,136 C144.7,135.5 144.7,135 144.8,134.5 C144.8,134.3 144.8,134 144.9,133.7 C144.9,133.3 145,132.8 145,132.3 L145,131.5 C145,131.1 145,130.5 145.1,130.1 L145.1,74.7 C146.1,73.4 146.1,72.2 145.9,71 C145,55.2 139.2,40.4 129.6,28.6 Z" id="path-0" fill="#1890FF"></path>
            </g>
        </g>
    </g>
</svg>