<?xml version="1.0" encoding="UTF-8"?>
<svg width="34px" height="38px" viewBox="0 0 34 38" version="1.1" xmlns="http://www.w3.org/2000/svg" xmlns:xlink="http://www.w3.org/1999/xlink">
    <title>Shape-Copy-path</title>
    <g id="页面-1" stroke="none" stroke-width="1" fill="none" fill-rule="evenodd">
        <g id="logo" fill="#409EFF" fill-rule="nonzero">
            <path d="M33.416502,27.2175511 C33.407008,28.7945682 32.587841,29.1463474 32.587841,29.1463474 C32.587841,29.1463474 18.4520478,37.3145087 17.5329956,37.8262751 C16.622336,38.2171561 16.0136703,37.8262751 16.0136703,37.8262751 C16.0136703,37.8262751 1.2225706,29.2479572 0.6826962,28.8708444 C0.1426843,28.4937316 0.129997299,27.9063774 0.129997299,27.9063774 C0.129997299,27.9063774 0.1450232,10.9199174 0.129997299,10.1333364 C0.1153053,9.3466177 1.0969576,8.7555461 1.0969576,8.7555461 L15.8755373,0.2134387 C16.7853714,-0.2667984 17.6711286,0.2134387 17.6711286,0.2134387 C17.6711286,0.2134387 30.726623,7.8020937 32.173442,8.6177257 C33.591507,9.2919577 33.416502,10.6843424 33.416502,10.6843424 C33.416502,10.6843424 33.425307,25.7519192 33.416502,27.2175511 L33.416502,27.2175511 Z M27.5160105,10.1691339 C24.4900173,8.4274483 17.3615842,4.2971063 17.3615842,4.2971063 C17.3615842,4.2971063 16.6661039,3.9212326 15.9517747,4.2971063 L4.3487406,10.98215 C4.3487406,10.98215 3.5780025,11.4449014 3.58956525,12.0604805 C3.6013915,12.6760597 3.58956525,25.9698708 3.58956525,25.9698708 C3.58956525,25.9698708 3.5994654,26.4295932 4.0234951,26.7246472 C4.4473873,27.0197011 16.0601898,33.7332451 16.0601898,33.7332451 C16.0601898,33.7332451 16.538152,34.0391759 17.2530315,33.7332451 C17.9746526,33.3327262 29.0730335,26.9402582 29.0730335,26.9402582 C29.0730335,26.9402582 29.7162325,26.6648929 29.7236619,25.4307056 C29.7257257,25.0747959 29.7266887,23.6932881 29.7266887,21.9575229 L16.6600502,29.8752394 L16.6600502,26.846221 C16.6600502,25.6021205 17.6231289,24.7809811 17.6231289,24.7809811 L29.1807607,17.8165793 C29.6168978,17.3611251 29.7068768,16.6315447 29.7254505,16.3556287 C29.7250378,15.0904627 29.7244874,13.9852841 29.7240747,13.2851678 L16.6600502,21.2012321 L16.6600502,18.034531 C16.6600502,16.7904305 17.4855462,16.2446564 17.4855462,16.2446564 L27.5160105,10.1691339 Z" id="Shape-Copy"></path>
        </g>
    </g>
</svg>