<?xml version="1.0" encoding="UTF-8"?>
<svg width="25px" height="27px" viewBox="0 0 25 27" version="1.1" xmlns="http://www.w3.org/2000/svg" xmlns:xlink="http://www.w3.org/1999/xlink">
    <title>protect</title>
    <defs>
        <filter id="filter-1">
            <feColorMatrix in="SourceGraphic" type="matrix" values="0 0 0 0 1.000000 0 0 0 0 1.000000 0 0 0 0 1.000000 0 0 0 1.000000 0"></feColorMatrix>
        </filter>
    </defs>
    <g id="页面-1" stroke="none" stroke-width="1" fill="none" fill-rule="evenodd">
        <g filter="url(#filter-1)" id="盾牌,安全,保护">
            <g transform="translate(0.304688, 0.000000)">
                <path d="M11.9584517,1.6875 C12.792081,1.6875 13.6310369,1.771875 14.4486861,1.93798828 C15.2743253,2.10673828 16.0866477,2.35986328 16.8616832,2.69208984 L22.1884074,4.97548828 L22.1884074,11.625293 C22.1910511,13.1994141 21.9220526,14.7498047 21.3867188,16.2316406 C20.859375,17.700293 20.1083097,19.06875 19.1521662,20.3000977 L19.1495028,20.3053711 L19.1468395,20.3106445 C18.190696,21.5630859 17.0454545,22.6441406 15.7404119,23.5274414 C14.5791903,24.3105469 13.3087713,24.890625 11.9611151,25.2544922 C10.6081321,24.890625 9.33238636,24.3052734 8.16850142,23.5195313 C6.86345881,22.6362305 5.71821733,21.5551758 4.76207386,20.3027344 L4.75941051,20.3000977 L4.75674716,20.2974609 C3.80859375,19.06875 3.06285511,17.7029297 2.53817472,16.2395508 L2.53817472,16.2342773 C2.00284091,14.7524414 1.73384233,13.2020508 1.73909145,11.6279297 L1.73909145,4.978125 L7.06321023,2.69472656 C7.83824574,2.3625 8.65056818,2.109375 9.47620739,1.940625 C10.2858665,1.771875 11.1221591,1.6875 11.9584517,1.6875 M11.9584517,0 C10.0594815,0 8.15784801,0.382324219 6.37872869,1.14697266 L0.02656522,3.86806641 L0.02656522,11.625293 C0.0213068182,13.3918945 0.32759233,15.1426758 0.926846591,16.8038086 C1.50745739,18.4306641 2.34108665,19.9546875 3.39577415,21.3231445 C4.46111506,22.7179687 5.7475142,23.9308594 7.20170455,24.9169922 C8.64790483,25.8952148 10.2565696,26.6018555 11.9557884,27 C13.6496804,26.6018555 15.2556818,25.8978516 16.6965554,24.9249023 C18.1534091,23.9414062 19.4371449,22.7258789 20.5024858,21.3310547 C21.5651634,19.9599609 22.4041193,18.4306641 22.9900568,16.7985352 C23.5893111,15.1374023 23.8929332,13.3839844 23.8902873,11.6200195 L23.8902873,3.86806641 L17.5355114,1.14433594 C15.756392,0.382324219 13.8574219,0 11.9584517,0 Z" id="形状" fill="#000000" fill-rule="nonzero"></path>
                <path d="M11.9584517,3.375 C13.4179687,3.375 14.8401989,3.66767578 16.1825284,4.24248047 L20.4812014,6.08554688 L20.4812014,11.6279297 C20.4838423,13.0069336 20.2494673,14.3648437 19.7807173,15.6647461 L19.7807173,15.6700195 C19.3146307,16.9699219 18.6487926,18.1854492 17.8018466,19.2770508 L17.7938565,19.2875977 L17.7858665,19.2981445 C16.9389205,20.400293 15.9295099,21.3574219 14.7762784,22.1352539 C13.9000355,22.7258789 12.9545455,23.1820313 11.9557884,23.4984375 C10.9517045,23.1820313 10.0035511,22.7232422 9.12464489,22.1273438 C7.97141335,21.346875 6.95933949,20.3923828 6.11505682,19.2849609 L6.10973011,19.2770508 L6.10440341,19.2691406 C5.26278409,18.1801758 4.60227273,16.9699219 4.13884943,15.6726563 L4.13618608,15.6673828 L4.13352273,15.6621094 C3.66743608,14.3701172 3.43306108,13.012207 3.43570199,11.6332031 L3.43570199,6.08554688 L7.73171165,4.24248047 C9.07404119,3.66767578 10.4962713,3.375 11.9584517,3.375" id="路径" fill="#000000" fill-rule="nonzero"></path>
            </g>
        </g>
    </g>
</svg>